<?xml version="1.0" standalone="no"?>
<!DOCTYPE svg PUBLIC "-//W3C//DTD SVG 20010904//EN"
 "http://www.w3.org/TR/2001/REC-SVG-20010904/DTD/svg10.dtd">
<svg version="1.0" xmlns="http://www.w3.org/2000/svg"
 width="1056.000000pt" height="1056.000000pt" viewBox="0 0 1056.000000 1056.000000"
 preserveAspectRatio="xMidYMid meet">
<metadata>
Created by potrace 1.14, written by Peter Selinger 2001-2017
</metadata>
<g transform="translate(0.000000,1056.000000) scale(0.100000,-0.100000)"
fill="#000000" stroke="none">
<path d="M534 10438 c4 -64 8 -123 11 -130 2 -7 6 -31 9 -53 21 -191 124 -506
222 -682 47 -85 78 -138 84 -143 3 -3 11 -17 19 -32 8 -16 18 -28 23 -28 4 0
8 -6 8 -13 0 -8 9 -22 20 -32 11 -10 20 -22 20 -27 0 -5 10 -20 23 -32 12 -13
33 -39 47 -57 60 -79 222 -234 361 -344 35 -27 166 -113 209 -136 25 -13 47
-26 50 -29 3 -3 48 -25 100 -49 52 -23 107 -49 122 -57 14 -8 31 -14 36 -14 6
0 23 -5 39 -11 15 -6 30 -11 33 -11 3 0 21 -6 40 -13 19 -7 51 -17 70 -23 47
-14 241 -51 305 -58 27 -2 70 -7 95 -10 25 -3 561 -6 1192 -7 632 -1 1148 -6
1148 -10 0 -5 5 -5 12 -1 20 13 59 14 52 2 -4 -6 -3 -8 3 -5 13 8 68 9 128 2
28 -3 70 -8 95 -10 25 -2 45 -4 45 -5 0 -1 20 -4 45 -6 25 -3 52 -7 60 -10 8
-4 33 -8 55 -10 42 -5 267 -56 322 -74 18 -6 40 -13 50 -15 19 -3 153 -50 188
-65 11 -4 61 -25 110 -45 112 -46 283 -132 370 -185 36 -22 70 -40 75 -40 6 0
10 -4 10 -8 0 -5 10 -13 23 -19 19 -9 175 -117 202 -140 6 -5 19 -15 31 -23
107 -75 379 -337 482 -465 62 -78 156 -201 182 -240 19 -27 37 -51 42 -53 4
-2 8 -12 8 -23 0 -10 5 -19 10 -19 6 0 15 -10 20 -22 5 -13 21 -41 34 -63 14
-22 33 -56 43 -75 9 -19 19 -37 22 -40 7 -6 82 -159 111 -225 12 -27 26 -58
31 -67 5 -10 9 -22 9 -28 0 -6 8 -29 19 -53 28 -63 72 -191 74 -216 1 -11 4
-21 7 -21 4 0 7 -6 8 -12 2 -17 12 -69 18 -86 2 -7 4 -14 4 -17 1 -3 6 -19 11
-37 5 -18 12 -49 15 -68 3 -19 7 -37 9 -40 3 -5 12 -57 20 -110 1 -8 5 -31 8
-50 15 -84 28 -239 30 -362 1 -49 5 -88 9 -88 4 0 3 -12 -2 -26 -7 -18 -7 -23
2 -18 7 5 8 3 3 -6 -5 -8 -10 -57 -12 -109 -4 -99 -10 -196 -13 -196 0 0 -3
-18 -5 -40 -5 -51 -14 -114 -19 -141 -2 -12 -7 -38 -10 -57 -26 -166 -122
-487 -191 -642 -10 -22 -19 -47 -21 -55 -2 -8 -7 -16 -13 -18 -5 -2 -7 -10 -4
-18 3 -8 0 -14 -6 -14 -6 0 -11 -6 -11 -12 0 -16 -62 -142 -72 -146 -5 -2 -8
-12 -8 -23 0 -10 -4 -19 -9 -19 -5 0 -13 -10 -17 -22 -4 -13 -22 -47 -40 -76
-19 -29 -34 -56 -34 -61 0 -5 -3 -11 -7 -13 -5 -1 -35 -43 -68 -93 -50 -75
-85 -122 -187 -250 -57 -72 -238 -257 -331 -338 -33 -29 -76 -67 -96 -84 -20
-18 -39 -33 -43 -33 -4 0 -13 -6 -20 -13 -7 -7 -42 -33 -78 -59 -36 -26 -74
-54 -85 -63 -10 -8 -24 -15 -31 -15 -7 0 -15 -7 -18 -16 -3 -8 -10 -13 -15
-10 -5 4 -11 2 -13 -3 -1 -4 -41 -30 -88 -57 -47 -27 -87 -52 -88 -57 -2 -4
-8 -5 -13 -1 -5 3 -9 0 -9 -5 0 -6 -3 -10 -7 -9 -11 2 -127 -55 -131 -64 -2
-5 -8 -8 -14 -8 -5 0 -26 -7 -46 -16 -21 -9 -46 -20 -57 -25 -80 -35 -201 -79
-216 -79 -10 0 -20 -4 -23 -9 -3 -5 -23 -12 -43 -16 -21 -4 -42 -10 -48 -13
-5 -4 -14 -7 -20 -8 -5 -1 -53 -13 -105 -27 -89 -24 -261 -60 -340 -71 -38 -5
-226 -18 -300 -20 -25 -1 -51 -5 -57 -9 -8 -5 -13 -3 -13 3 0 6 -4 9 -9 6 -5
-4 -49 -8 -98 -11 -48 -3 -106 -7 -128 -9 -22 -2 -71 -7 -110 -11 -38 -4 -79
-9 -90 -11 -11 -2 -32 -6 -47 -9 -136 -25 -339 -91 -473 -154 -47 -22 -88 -40
-92 -40 -3 1 -9 -3 -12 -8 -3 -4 -22 -16 -41 -26 -19 -10 -44 -23 -55 -30 -72
-43 -104 -63 -130 -84 -16 -13 -35 -27 -40 -31 -139 -100 -385 -338 -385 -373
0 -5 -3 -8 -8 -5 -8 5 -182 -246 -182 -263 0 -5 -6 -16 -13 -23 -16 -16 -62
-110 -59 -120 1 -5 -2 -8 -7 -8 -5 0 -11 -8 -14 -17 -3 -10 -23 -61 -44 -113
-21 -52 -45 -115 -52 -140 -31 -104 -40 -137 -47 -170 -4 -19 -8 -37 -9 -40
-1 -3 -5 -27 -10 -55 -4 -27 -9 -59 -11 -70 -8 -42 -17 -142 -18 -197 -1 -32
-5 -58 -9 -58 -5 0 -5 -6 0 -12 4 -7 8 -17 8 -22 0 -6 409 -10 1040 -10 919
-1 1220 3 1440 19 244 17 279 20 355 31 25 4 59 8 75 10 101 12 173 24 265 46
47 11 92 22 100 23 8 2 49 13 90 23 41 11 78 18 83 15 4 -2 7 0 7 5 0 5 6 9
13 9 6 0 38 7 69 17 32 9 59 16 60 16 2 0 49 15 106 35 56 19 106 35 111 35 5
0 26 8 47 17 22 9 44 18 49 19 32 9 178 65 211 82 22 11 41 20 44 20 13 1 114
44 222 96 42 20 81 36 86 36 6 0 12 3 14 8 2 4 42 27 89 50 48 24 147 80 220
124 74 44 147 87 162 97 16 9 41 26 55 38 15 13 31 23 35 23 4 0 13 5 20 10
38 33 107 80 116 80 5 0 11 3 13 8 2 4 39 34 83 66 44 33 85 65 92 70 7 6 18
16 25 21 54 42 115 92 128 105 9 8 50 44 91 80 200 175 539 538 674 724 20 27
33 44 68 85 9 12 17 25 17 29 0 4 11 20 25 36 14 16 25 32 25 36 0 3 8 15 18
26 23 25 76 107 77 117 0 4 5 11 11 15 12 8 141 221 198 327 21 39 47 85 58
103 11 17 16 32 13 32 -4 0 -2 7 5 15 17 21 50 87 50 102 0 7 5 13 10 13 6 0
10 4 10 9 0 5 13 38 29 73 16 35 43 97 60 138 18 41 37 86 43 100 6 14 14 33
19 42 5 10 9 23 9 29 0 6 6 25 14 42 16 36 28 67 32 82 1 6 14 44 29 85 14 41
27 80 28 85 2 6 6 16 10 22 5 7 6 13 3 13 -3 0 1 18 9 40 8 22 12 40 8 40 -3
0 -1 6 4 12 10 13 23 55 29 93 2 11 15 63 29 115 28 105 34 131 41 175 3 17
13 67 23 112 10 45 17 94 16 108 0 14 2 25 6 25 4 0 6 8 4 17 -1 10 0 22 3 28
3 5 7 21 8 35 2 32 13 124 20 175 3 22 7 56 9 75 1 19 6 80 11 135 16 192 10
665 -12 890 -2 28 -6 68 -9 90 -2 22 -6 54 -9 70 -3 17 -8 53 -11 80 -3 28 -7
61 -10 75 -3 14 -8 37 -10 53 -16 97 -23 132 -31 167 -12 51 -15 66 -19 90 -4
20 -47 196 -70 283 -3 9 -7 26 -9 37 -3 11 -8 25 -11 30 -3 5 -8 18 -10 28
-11 62 -151 448 -204 565 -11 26 -30 68 -42 95 -38 85 -204 412 -222 436 -6 9
-43 70 -117 195 -8 14 -18 30 -23 35 -27 38 -57 88 -57 96 0 6 -4 10 -8 10 -4
0 -16 15 -27 33 -10 17 -23 37 -27 42 -17 21 -64 84 -78 105 -30 44 -134 175
-142 178 -4 2 -8 7 -8 12 0 7 -18 30 -85 106 -11 12 -40 46 -65 76 -52 62
-347 358 -436 439 -34 30 -95 81 -135 114 -41 33 -76 63 -77 67 -2 4 -7 8 -12
8 -8 0 -33 19 -79 60 -9 8 -39 31 -67 49 -27 19 -51 38 -54 41 -11 13 -249
170 -258 170 -6 0 -12 4 -14 8 -4 9 -105 72 -116 72 -5 0 -17 8 -28 18 -10 10
-37 27 -59 38 -22 11 -95 50 -162 86 -67 36 -125 63 -128 60 -3 -3 -5 0 -5 6
0 7 -5 12 -10 12 -6 0 -42 16 -80 35 -39 19 -74 35 -78 35 -4 1 -20 7 -37 14
-45 20 -137 58 -160 66 -11 5 -36 15 -57 24 -20 9 -42 16 -50 16 -8 0 -18 3
-22 7 -4 5 -12 9 -17 9 -5 1 -11 3 -14 4 -3 1 -8 3 -12 5 -5 1 -15 4 -23 7
-65 25 -276 91 -300 95 -8 1 -55 14 -105 28 -49 14 -100 28 -113 31 -12 2 -59
13 -105 24 -45 10 -96 21 -114 23 -17 3 -36 7 -40 10 -5 3 -29 9 -54 12 -24 4
-53 8 -64 10 -129 21 -153 24 -215 30 -30 3 -68 8 -85 10 -16 2 -79 7 -140 10
-60 4 -148 9 -195 12 -47 3 -1068 6 -2268 7 l-2184 2 6 -118z"/>
<path d="M530 4224 l0 -4222 78 4 c72 4 155 11 212 19 14 2 43 6 65 9 22 3 55
9 73 15 17 5 32 7 32 4 0 -3 7 0 15 7 8 7 15 10 15 7 0 -3 15 -1 33 4 17 6 41
12 52 14 22 3 128 38 172 57 16 6 37 13 48 15 10 2 22 7 25 11 7 10 63 36 73
34 4 -1 25 9 47 23 22 14 42 25 44 25 8 0 131 74 137 83 3 5 10 9 15 8 5 0 38
22 74 48 36 26 69 49 75 52 5 2 21 15 35 28 14 13 42 37 63 55 32 25 110 103
197 195 48 51 200 252 200 265 0 3 13 24 29 48 34 50 146 280 155 318 1 3 8
16 16 30 7 14 12 26 11 28 -2 2 1 15 7 30 35 93 78 270 87 362 2 14 4 25 5 25
4 0 22 191 20 220 -2 30 -1 37 3 68 2 15 0 27 -6 27 -7 0 -7 4 0 11 8 8 8 20
2 36 -5 13 -6 22 -1 20 4 -3 7 17 7 44 0 27 -4 49 -9 49 -6 0 -5 5 1 11 8 8 8
20 2 36 -5 13 -6 22 -1 20 4 -3 7 17 7 44 0 27 -4 49 -9 49 -6 0 -5 5 1 11 8
8 8 20 2 36 -5 13 -6 22 -1 20 4 -3 7 17 7 44 0 27 -4 49 -9 49 -6 0 -5 5 1
11 8 8 8 20 2 36 -5 13 -6 22 -1 20 4 -3 7 17 7 44 0 27 -4 49 -9 49 -6 0 -5
5 1 11 8 8 8 20 2 36 -5 13 -6 22 -1 20 4 -3 7 10 7 28 0 18 -4 31 -9 27 -5
-3 -6 0 -2 7 11 17 13 111 3 111 -5 0 -5 6 1 13 6 7 7 18 3 26 -4 7 -5 30 -1
51 4 22 3 37 -1 34 -5 -3 -5 5 -1 18 8 25 8 68 -1 90 -3 8 -1 21 3 29 5 8 4
19 -2 26 -6 7 -7 13 -2 13 5 0 9 15 9 34 0 19 -4 32 -9 28 -5 -3 -6 0 -2 7 11
17 13 111 3 111 -5 0 -5 6 1 13 6 7 7 18 3 26 -4 7 -5 30 -1 51 4 22 3 37 -1
34 -5 -3 -5 5 -1 18 8 25 8 68 -1 90 -3 8 -1 21 3 29 5 8 4 19 -2 26 -6 7 -7
13 -2 13 5 0 9 15 9 34 0 19 -4 32 -9 29 -5 -4 -6 -1 -2 6 11 17 13 111 3 111
-5 0 -5 6 1 13 6 7 7 18 3 26 -4 7 -5 30 -1 51 4 22 3 37 -1 34 -5 -3 -5 5 -1
18 8 25 8 68 -1 90 -3 8 -1 21 3 29 5 8 4 19 -2 26 -6 7 -7 13 -2 13 5 0 9 15
9 34 0 19 -4 32 -9 29 -5 -4 -6 -1 -2 6 11 17 13 111 3 111 -5 0 -5 6 1 13 6
7 7 18 3 26 -4 7 -5 30 -1 51 4 22 3 37 -1 34 -5 -3 -5 5 -1 18 8 25 8 68 -1
90 -3 8 -1 21 3 29 5 8 4 19 -2 26 -6 7 -7 13 -2 13 5 0 9 15 9 34 0 19 -4 32
-9 28 -5 -3 -6 0 -2 7 11 17 13 111 3 111 -5 0 -5 6 1 13 6 7 7 18 3 26 -4 7
-5 30 -1 51 4 22 3 37 -1 34 -5 -3 -5 5 -1 18 8 25 8 68 -1 90 -3 8 -1 21 3
29 5 8 4 19 -2 26 -6 7 -7 13 -2 13 5 0 9 15 9 34 0 19 -4 32 -9 29 -5 -4 -6
-1 -2 6 11 17 13 111 3 111 -5 0 -5 6 1 13 6 7 7 18 3 26 -4 7 -5 30 -1 51 4
22 3 37 -1 34 -5 -3 -5 5 -1 18 8 25 8 68 -1 90 -3 8 -1 21 3 29 5 8 4 19 -2
26 -6 7 -7 13 -2 13 5 0 9 15 9 34 0 19 -4 32 -9 29 -5 -4 -6 -1 -2 6 11 17
13 111 3 111 -5 0 -5 6 1 13 6 7 7 18 3 26 -4 7 -5 30 -1 51 4 22 3 37 -1 34
-5 -3 -5 5 -1 18 8 25 8 68 -1 90 -3 8 -1 21 3 29 5 8 4 19 -2 26 -6 7 -7 13
-2 13 5 0 9 15 9 34 0 19 -3 32 -7 29 -7 -3 3 30 12 47 2 3 -2 16 -9 29 -10
19 -10 22 0 16 8 -6 10 -4 5 4 -5 7 -10 54 -12 104 -2 51 -6 108 -9 127 -3 19
-7 51 -10 70 -3 19 -8 46 -11 60 -3 14 -7 34 -9 45 -1 11 -8 40 -15 65 -7 25
-13 50 -14 55 -8 35 -29 106 -43 140 -8 22 -16 47 -18 56 -8 38 -122 270 -161
329 -13 19 -24 40 -24 47 0 7 -4 13 -8 13 -4 0 -16 15 -27 33 -30 51 -134 185
-194 250 -110 119 -278 267 -328 290 -13 6 -23 14 -23 18 0 5 -17 18 -37 29
-21 11 -60 35 -88 52 -47 29 -233 128 -238 127 -2 -1 -21 7 -92 36 -28 12 -65
25 -90 31 -5 2 -48 15 -95 29 -47 14 -96 28 -110 30 -14 3 -36 7 -50 10 -14 3
-42 7 -62 10 -21 2 -42 6 -47 9 -9 6 -135 17 -238 20 l-63 3 0 -4223z"/>
</g>
</svg>
