<svg xmlns="http://www.w3.org/2000/svg" width="545" height="153" fill="none" viewBox="0 0 545 153"><g clip-path="url(#a)"><path fill="#fd0" d="M0 24.48C0 10.96 10.96 0 24.48 0H520.2c13.52 0 24.48 10.96 24.48 24.48v104.04c0 13.52-10.96 24.48-24.48 24.48H24.48C10.96 153 0 142.04 0 128.52z"/><path fill="#0d0c22" d="m109.522 50.318-.067-.04-.156-.047a.37.37 0 0 0 .223.087M109.549 50.306l-.025-.006v.017a.1.1 0 0 0 .025-.01"/><path fill="#0d0c22" d="M109.523 50.32h.013v-.007zM110.447 57.3l.113-.064.042-.024.038-.04a.7.7 0 0 0-.193.129M109.715 50.471l-.111-.105-.075-.04a.31.31 0 0 0 .186.145M81.88 118.353a.6.6 0 0 0-.225.174l.07-.045c.047-.043.114-.095.155-.129M98.046 115.173c0-.1-.05-.082-.037.274 0-.029.012-.058.017-.086q.009-.094.02-.188M96.376 118.353a.6.6 0 0 0-.225.174l.07-.045c.047-.043.114-.095.155-.129M70.489 119.11a.5.5 0 0 0-.238-.111c.072.035.143.069.19.095zM67.93 116.657a.8.8 0 0 0-.093-.295q.054.141.09.29z"/><path fill="#fff" d="M85.137 72.774c-3.517 1.505-7.509 3.213-12.682 3.213a24 24 0 0 1-6.402-.883l3.578 36.734a6.136 6.136 0 0 0 6.117 5.632s5.073.264 6.766.264c1.822 0 7.285-.264 7.285-.264a6.14 6.14 0 0 0 6.116-5.632l3.832-40.592c-1.712-.585-3.44-.974-5.389-.974-3.37-.001-6.085 1.16-9.221 2.502"/><path fill="#0d0c22" d="m54.984 57.102.061.057.04.023a.6.6 0 0 0-.1-.08"/><path fill="#0d0c22" d="m116.299 53.712-.538-2.718c-.484-2.438-1.581-4.742-4.084-5.623-.802-.282-1.713-.404-2.328-.987-.615-.584-.797-1.49-.939-2.33-.263-1.543-.511-3.087-.781-4.627-.233-1.324-.418-2.811-1.025-4.026-.79-1.63-2.43-2.584-4.061-3.215a23 23 0 0 0-2.555-.79c-4.074-1.076-8.358-1.47-12.55-1.696a105 105 0 0 0-15.095.25c-3.736.34-7.67.751-11.22 2.044-1.298.473-2.636 1.04-3.622 2.043-1.21 1.231-1.606 3.136-.722 4.672.628 1.091 1.693 1.862 2.822 2.371a23 23 0 0 0 4.581 1.492c4.387.97 8.93 1.35 13.412 1.512 4.967.2 9.942.038 14.886-.486a85 85 0 0 0 3.66-.484c1.435-.22 2.356-2.095 1.933-3.402-.506-1.563-1.865-2.169-3.403-1.933q-.338.053-.678.102l-.163.023q-.782.1-1.563.185-1.614.173-3.235.284c-2.421.169-4.85.247-7.276.25-2.384 0-4.77-.067-7.149-.223a91 91 0 0 1-3.248-.272 79 79 0 0 1-1.472-.166l-.466-.059-.102-.014-.483-.07a51 51 0 0 1-2.953-.527.444.444 0 0 1 0-.867h.018q1.271-.269 2.557-.469.428-.067.859-.132h.008c.536-.035 1.075-.131 1.608-.195 4.642-.482 9.311-.647 13.976-.492 2.264.066 4.527.199 6.781.428q.726.074 1.45.162c.184.022.37.049.555.071l.374.054q1.636.244 3.255.592c1.6.347 3.653.46 4.365 2.213.226.556.329 1.173.454 1.757l.16.744.009.041 1.131 5.27a.96.96 0 0 1-.811 1.158h-.011l-.23.03-.228.031q-1.083.141-2.168.264-2.138.243-4.283.421-4.262.354-8.54.465-2.18.059-4.36.054a151 151 0 0 1-17.3-1.006q-.934-.112-1.866-.233c.482.062-.35-.048-.52-.072q-.592-.082-1.185-.172c-1.326-.2-2.645-.444-3.969-.659-1.6-.263-3.131-.132-4.579.659a6.66 6.66 0 0 0-2.757 2.858c-.624 1.291-.81 2.697-1.09 4.084-.279 1.387-.714 2.88-.549 4.304.354 3.073 2.503 5.57 5.593 6.13 2.908.526 5.831.953 8.762 1.317a162 162 0 0 0 37.513.216 1.976 1.976 0 0 1 2.182 2.165l-.293 2.843-3.624 35.325-.526 5.095c-.17 1.671-.193 3.396-.51 5.048-.5 2.597-2.26 4.193-4.826 4.776a33.7 33.7 0 0 1-7.163.838c-2.673.014-5.345-.104-8.017-.09-2.854.016-6.349-.247-8.551-2.371-1.935-1.865-2.203-4.786-2.466-7.311q-.527-5.015-1.045-10.029L64.09 82.021l-1.253-12.026-.062-.595c-.15-1.435-1.166-2.839-2.766-2.767-1.37.061-2.927 1.226-2.767 2.767l.929 8.915 1.92 18.443q.822 7.858 1.638 15.718c.105 1.004.204 2.011.315 3.014.602 5.486 4.791 8.442 9.979 9.274 3.03.488 6.133.588 9.208.638 3.941.063 7.922.215 11.799-.499 5.745-1.054 10.055-4.89 10.67-10.841l.527-5.154 1.75-17.053 1.904-18.574.874-8.513a1.98 1.98 0 0 1 1.591-1.737c1.643-.32 3.213-.867 4.382-2.117 1.86-1.99 2.23-4.586 1.572-7.202m-61.794 1.836c.025-.012-.02.203-.04.303-.005-.151.003-.286.04-.303m.16 1.233c.013-.009.052.044.093.107-.062-.058-.101-.101-.095-.107zm.156.207c.087.157.057.096 0 0m.315.256h.008c0 .009.015.018.02.027l-.03-.027zm55.133-.382c-.59.56-1.48.822-2.358.952-9.854 1.462-19.851 2.203-29.813 1.876-7.129-.244-14.183-1.035-21.241-2.033-.692-.097-1.441-.224-1.917-.733-.896-.962-.456-2.899-.223-4.06.214-1.065.622-2.484 1.888-2.635 1.976-.232 4.27.602 6.226.898q3.53.54 7.087.863c10.12.922 20.41.779 30.484-.57q2.754-.37 5.489-.86c1.625-.292 3.425-.838 4.407.844.673 1.146.762 2.68.658 3.974a2.2 2.2 0 0 1-.689 1.484z"/><path fill="#000" d="M151.102 53.912q.34-1.367 1.22-1.855.928-.537 1.856-.44.976.098 1.709.635.732.537.732 1.27 0 .293-.049.585a2.5 2.5 0 0 0-.049.489q2.979-1.074 5.811-1.416 2.881-.391 5.225.244a9.5 9.5 0 0 1 4.15 2.295q1.806 1.659 2.637 4.59.341 1.17.146 2.832a16.4 16.4 0 0 1-.732 3.222 16.5 16.5 0 0 1-1.319 2.979q-.732 1.367-1.513 2.002a7.7 7.7 0 0 1 3.125 1.904 9.7 9.7 0 0 1 2.099 2.979 11.6 11.6 0 0 1 .977 3.71q.195 2.003-.244 4.004-.44 1.953-1.807 3.662-1.367 1.66-3.369 2.979a21 21 0 0 1-4.443 2.197A24.2 24.2 0 0 1 162.283 94q-2.49.292-4.931 0-2.442-.342-4.395-1.416-.635 1.026-1.514 1.416-.83.439-1.611.293-.782-.146-1.367-.879-.586-.733-.733-2.05.44-4.395.879-9.132.44-4.785.879-9.619.44-4.833.83-9.57.391-4.737.782-9.13m2.294 33.887q1.368.976 3.321 1.318 1.953.293 4.004.049a19 19 0 0 0 4.15-1.074q2.05-.781 3.565-2.002 1.562-1.27 2.441-2.93.879-1.709.635-3.76a3.44 3.44 0 0 0-.537-1.416 6.5 6.5 0 0 0-1.075-1.27q-1.172-1.024-3.222-1.269-2.002-.292-4.297-.048-2.246.195-4.395.732-2.148.487-3.564.977zm1.612-17.09q.342 0 1.416-.049a30 30 0 0 0 2.588-.244q1.513-.195 3.125-.586a17.6 17.6 0 0 0 3.027-1.123q1.465-.732 2.441-1.758a4.48 4.48 0 0 0 1.221-2.588q.244-1.904-.293-3.125-.537-1.268-1.66-1.904-1.074-.684-2.539-.83a12.7 12.7 0 0 0-2.93.049q-1.514.195-2.978.683-1.416.489-2.442 1.123zm25.781-3.662q.684-1.22 1.611-1.66.977-.489 1.856-.244.927.195 1.562 1.074.636.83.635 2.246-.147.585-.537 2.344-.39 1.757-.879 4.052-.44 2.295-.879 4.883a46 46 0 0 0-.586 4.688q-.146 2.148.049 3.613.245 1.465 1.025 1.611 1.416.245 2.637-1.074t2.246-3.467q1.025-2.197 1.856-4.882.83-2.686 1.416-5.127a97 97 0 0 0 1.025-4.395q.391-1.904.586-2.54.342-1.22.879-2.001.587-.78 1.758-1.27 1.709-.195 2.637.733.976.879 1.025 2.588-.39 1.904-.879 4.053a206 206 0 0 0-.928 4.296 68 68 0 0 0-.732 4.102 41 41 0 0 0-.391 3.516q-.048 1.562.147 2.636.244 1.074.927 1.367 1.563.244 2.784-1.61 1.269-1.856 2.685-6.056.44-1.074 1.319-1.318.879-.245 1.611.147.781.34 1.172 1.27.44.927 0 2.245-.294.831-.733 1.953a23 23 0 0 1-1.074 2.246q-.585 1.173-1.318 2.344a15.3 15.3 0 0 1-1.563 2.1q-1.22 1.464-2.734 2.1-1.513.585-2.979.39-1.464-.195-2.783-1.22-1.319-1.026-2.148-2.882a28 28 0 0 1-1.807 2.344 9.8 9.8 0 0 1-2.002 1.856q-1.074.78-2.441 1.123-1.319.39-3.125.293-1.758-.098-2.93-.977a6 6 0 0 1-1.758-2.246 11 11 0 0 1-.879-2.978 23 23 0 0 1-.244-3.32q0-1.662.098-3.126.147-1.513.244-2.539a59 59 0 0 1 .439-3.076q.342-1.758.684-3.564.39-1.856.781-3.565.391-1.758.635-3.076m25.977 0q.488-1.172 1.611-1.514 1.124-.342 2.148 0 1.026.293 1.612 1.27.585.927 0 2.344a44 44 0 0 0-.83 2.88 75 75 0 0 0-.83 3.614 72 72 0 0 0-.586 3.857 27 27 0 0 0-.147 3.516q.098 1.612.488 2.685.391 1.074 1.27 1.319 1.904.097 3.516-.733 1.659-.879 3.027-2.392a20.4 20.4 0 0 0 2.588-3.467 39 39 0 0 0 2.099-4.004 53 53 0 0 0 1.709-4.102q.781-2.001 1.368-3.613.683-1.22 1.611-1.66.976-.489 1.855-.244.929.195 1.563 1.074.635.83.635 2.197a37 37 0 0 0-1.368 5.274 50 50 0 0 0-.585 5.322 69 69 0 0 0-.098 3.662q.049 1.807.244 3.37.537-.293 1.465-.929a19 19 0 0 0 2.002-1.513q1.074-.879 2.051-1.953a11.4 11.4 0 0 0 1.611-2.246q.977-1.173 1.904-1.075a2.37 2.37 0 0 1 1.612.83q.683.734.83 1.758.195 1.026-.342 1.758-1.758 2.979-4.444 5.664-2.685 2.686-6.884 4.444.146 2.1 0 4.785a36 36 0 0 1-.733 5.468 31.3 31.3 0 0 1-1.513 5.323q-.929 2.588-2.442 4.394-1.464 1.807-3.467 2.588-2.001.782-4.638-.049-2.54-.781-3.662-2.588-1.124-1.806-1.172-4.248 0-2.392.927-5.175a28.8 28.8 0 0 1 2.54-5.518 35.6 35.6 0 0 1 3.808-5.078q2.197-2.392 4.639-4.102.049-1.172.049-2.148 0-1.026.048-2.149a22.7 22.7 0 0 1-2.88 3.028 19 19 0 0 1-3.516 2.441 13.7 13.7 0 0 1-4.004 1.416q-2.1.39-4.297-.195-2.05-.585-3.271-2.149-1.173-1.562-1.709-3.71-.537-2.197-.489-4.786.049-2.636.44-5.273.44-2.686 1.123-5.176.684-2.49 1.514-4.492m17.089 30.713q-1.122.927-2.148 2.295a28 28 0 0 0-1.855 2.929 31 31 0 0 0-1.368 3.028q-.537 1.562-.732 2.783t0 2.051.928.927q.927.147 1.709-.781.83-.879 1.465-2.344.683-1.465 1.171-3.271.489-1.758.733-3.369.293-1.611.293-2.783.048-1.173-.196-1.465m26.124-5.03q.683-4.443.976-7.812.342-3.37.391-5.86.048-2.538-.098-4.248a30 30 0 0 0-.293-2.978q-.196-1.221-.439-1.953a9 9 0 0 1-.245-1.319q-.097-.731.098-1.269.244-.585.635-.977.44-.39.976-.585a2.6 2.6 0 0 1 1.075-.245q1.074 0 1.66.342t.879 1.026q.342.635.439 1.61.147.93.244 2.198a21 21 0 0 1 1.465-2.148 12 12 0 0 1 1.856-2.002 9 9 0 0 1 2.246-1.416 6.44 6.44 0 0 1 2.734-.586q1.514 0 2.881.586a7.5 7.5 0 0 1 2.441 1.562A8.2 8.2 0 0 1 271.756 69q.781 1.32 1.172 2.88a39 39 0 0 1 2.343-3.905q1.319-1.856 3.516-2.881 2.197-1.026 4.102-.586a6.95 6.95 0 0 1 3.32 1.806q1.465 1.319 2.295 3.37.83 2.001.83 4.199 0 2.54-.342 5.322-.292 2.783-.537 5.176-.244 2.393-.195 4.004.097 1.611.879 1.806 1.318.342 2.539-.78 1.22-1.124 2.197-2.784a25.5 25.5 0 0 0 1.758-3.37q.781-1.757 1.221-2.734.34-.83 1.074-1.025.781-.195 1.465.098.732.292 1.171 1.074.489.732.342 1.807a30.5 30.5 0 0 1-1.611 4.785 18.7 18.7 0 0 1-2.588 4.345 11.9 11.9 0 0 1-3.662 3.077q-2.148 1.22-4.932 1.22-1.855 0-3.076-1.025a7.1 7.1 0 0 1-1.855-2.393 11.2 11.2 0 0 1-.928-3.076q-.244-1.611-.244-2.832 0-1.758.195-3.369.245-1.611.537-3.125.294-1.563.488-2.978.245-1.465.245-2.833 0-1.854-.44-2.93-.39-1.073-1.172-1.074-1.513 0-2.881 1.807-1.317 1.758-2.441 4.59-1.074 2.783-1.953 6.348a76 76 0 0 0-1.318 7.03q-.147 1.222-1.075 1.759a3.5 3.5 0 0 1-2.002.39 4.24 4.24 0 0 1-1.904-.78q-.83-.685-.83-1.807.098-.636.293-2.295a53 53 0 0 0 .391-3.858q.195-2.148.195-4.443.048-2.344-.293-4.297-.292-1.953-1.074-3.174-.733-1.27-2.1-1.27-1.123 0-2.148 1.075-1.026 1.025-2.002 2.783-.928 1.758-1.709 4.053a61 61 0 0 0-1.416 4.834 89 89 0 0 0-1.026 5.127 58 58 0 0 0-.537 4.882q-.146 1.221-1.172 1.71a3.86 3.86 0 0 1-2.099.39 3.93 3.93 0 0 1-2.002-.732q-.88-.636-.781-1.66m62.89-21.728a19 19 0 0 1-.879 4.932 14.8 14.8 0 0 1-2.295 4.443 12 12 0 0 1-3.711 3.174q-2.148 1.172-4.931.976.048 1.514.342 2.93.293 1.416.927 2.441a3.9 3.9 0 0 0 1.807 1.416q1.124.39 2.832-.146 1.709-.489 3.271-1.611a15 15 0 0 0 2.784-2.588 15.6 15.6 0 0 0 2.099-3.076q.879-1.66 1.27-3.223.195-.83.927-1.026.733-.195 1.514.05a2.77 2.77 0 0 1 1.367.878q.586.586.391 1.367-1.074 2.833-2.148 5.03-1.026 2.198-2.295 3.906a14 14 0 0 1-2.881 2.832q-1.563 1.172-3.711 1.953-2.881 1.026-5.322.88-2.442-.1-4.248-1.27-1.807-1.172-2.881-3.32-1.026-2.15-1.172-5.225a54 54 0 0 1-.098-3.516q.049-2.1.293-4.346.244-2.295.781-4.638a22 22 0 0 1 1.465-4.346q.929-2.05 2.295-3.565a8.05 8.05 0 0 1 3.418-2.246q1.66-.585 3.272-.44 1.611.148 2.832 1.026 1.269.879 2.002 2.49.732 1.563.683 3.858m-6.152-1.27q-.684-.44-1.367-.048-.635.341-1.221 1.22-.587.83-1.025 2.002a19 19 0 0 0-.733 2.442 23 23 0 0 0-.439 2.343q-.147 1.124-.049 1.807 2.246-.44 3.564-1.855t1.807-3.028q.537-1.611.342-3.027-.147-1.416-.879-1.856m30.566 23.829q-2.978 0-4.736-1.66-1.709-1.66-2.393-4.249-.683-2.636-.439-5.81a25.5 25.5 0 0 1 1.367-6.201 25.5 25.5 0 0 1 2.783-5.664q1.758-2.588 4.004-3.956a8.03 8.03 0 0 1 4.883-1.171q2.686.195 5.566 2.685.294-.88 1.27-1.025a3.2 3.2 0 0 1 1.904.195 3.3 3.3 0 0 1 1.612 1.22q.634.831.244 2.052-.342 1.367-.879 3.369-.537 1.953-1.074 4.101a92 92 0 0 0-.879 4.346q-.342 2.148-.342 3.906.048 1.71.537 2.881.488 1.124 1.709 1.22 1.464.099 2.734-.976 1.319-1.122 2.295-2.783a19.5 19.5 0 0 0 1.709-3.516q.684-1.855.879-3.222.342-1.27 1.123-1.465.83-.244 1.563.146.78.39 1.22 1.221.489.781.147 1.514-.342 1.954-1.367 4.492a24.7 24.7 0 0 1-2.637 4.785q-1.563 2.246-3.565 3.809-2.001 1.562-4.296 1.562-1.026 0-2.149-.39-1.074-.342-2.099-1.124-.977-.78-1.758-2.001t-1.123-2.979q-.44.537-1.221 1.367a14.3 14.3 0 0 1-1.807 1.514q-1.025.732-2.246 1.27a6.2 6.2 0 0 1-2.539.537m-.049-6.104q1.563.147 2.735-.732 1.221-.88 2.148-2.344a17 17 0 0 0 1.563-3.37 35 35 0 0 0 1.025-3.564q.44-1.758.684-3.174.243-1.464.341-2.1-1.562-1.317-2.929-1.366-1.368-.05-2.539.78-1.123.782-2.002 2.247a18.4 18.4 0 0 0-1.514 3.223 21.3 21.3 0 0 0-.879 3.515 21 21 0 0 0-.293 3.32q.049 1.515.44 2.49.44.978 1.22 1.075m52.149-12.158q-.098 0-.147-.049-.537 1.171-1.416 1.709-.83.537-1.709.44-.879-.147-1.611-.88-.684-.732-.928-2.05 0-.634.147-1.563.146-.976.195-1.855.098-.928-.049-1.563-.146-.683-.781-.781-1.124.635-1.953 2.149-.83 1.465-1.367 3.369a24.3 24.3 0 0 0-.782 3.955q-.195 2.1-.146 4.052.098 1.905.488 3.418.44 1.515 1.221 2.198.977.928 2.148 1.123 1.172.196 2.442-.05 1.074-.195 2.441-.732t2.735-1.562q1.416-1.025 2.685-2.637 1.319-1.611 2.295-4.052.342-.733 1.172-.88a3.1 3.1 0 0 1 1.709.196q.83.293 1.318 1.025.489.733.098 1.807a17 17 0 0 1-2.442 4.102 20.3 20.3 0 0 1-3.076 3.173 21.6 21.6 0 0 1-3.466 2.344 28 28 0 0 1-3.516 1.611q-1.319.489-2.783.733-1.466.293-2.979.146a9.6 9.6 0 0 1-2.832-.732q-1.367-.635-2.441-1.953-1.27-1.515-2.002-3.76a22.2 22.2 0 0 1-.879-4.785 28 28 0 0 1 .098-5.225q.34-2.685 1.074-5.078.781-2.441 1.953-4.394 1.22-2.003 2.783-3.125 2.54-1.71 4.932-1.563 2.44.097 3.857 2.148 1.123.147 1.807 1.124.684.976.39 2.246zm20.947-10.352q2.246-.732 3.906-.293 1.71.44 2.832 1.71 1.123 1.27 1.758 3.173.684 1.855.928 3.955.098.976.098 2.149.048 1.17-.049 2.343-.05 1.172-.196 2.247a15 15 0 0 1-.293 1.953 10 10 0 0 0 2.1-.293 17 17 0 0 0 1.709-.635q.781-.39 1.465-.83.732-.44 1.465-.83.928-.488 1.513-.098.635.342.83 1.074.245.733.098 1.612-.098.83-.635 1.318-2.343 2.148-5.127 3.125a17.8 17.8 0 0 1-5.664.928q-1.904 3.369-4.882 5.127-2.979 1.709-6.495 1.757-3.272.05-5.517-1.318a10.4 10.4 0 0 1-3.565-3.564q-1.318-2.197-1.757-4.98a20.6 20.6 0 0 1 0-5.665q.44-2.88 1.66-5.566 1.269-2.734 3.222-4.737a12.8 12.8 0 0 1 4.59-3.027q2.686-1.074 6.006-.635m-3.516 5.615q-1.562.342-2.88 1.758-1.319 1.368-2.246 3.32a15.5 15.5 0 0 0-1.319 4.151q-.39 2.245-.098 4.248.342 1.954 1.514 3.418t3.369 1.904q.782.148 1.758-.146a7.7 7.7 0 0 0 1.904-.88 8.5 8.5 0 0 0 1.661-1.366q.78-.83 1.171-1.66a9.3 9.3 0 0 1-2.343-2.002 14 14 0 0 1-1.612-2.588 14.4 14.4 0 0 1-1.269-4.98q-.195-2.686.39-5.177m6.055.245q-1.367.83-1.562 2.343-.147 1.465.293 3.028.439 1.513 1.22 2.734.782 1.221 1.319 1.514.292-.244.439-1.123.195-.928.244-2.1a20 20 0 0 0-.049-2.441 14 14 0 0 0-.341-2.246q-.245-.977-.635-1.465-.391-.537-.928-.244m13.037-17.237q.684-1.22 1.709-1.562 1.075-.342 2.002-.049a2.97 2.97 0 0 1 1.514 1.074q.585.781.293 1.807l-3.028 32.422a16 16 0 0 0 4.102-.83 24.4 24.4 0 0 0 3.857-1.807 30 30 0 0 0 3.516-2.49 45 45 0 0 0 3.174-2.783q.781-.39 1.367.292.635.684.879 1.758.293 1.026.098 2.149-.147 1.123-.928 1.611-1.026.78-2.295 1.758a73 73 0 0 1-2.588 1.807 42 42 0 0 1-2.49 1.513q-1.221.684-2.1.928 1.465 1.611 2.295 4.101a21.3 21.3 0 0 1 1.026 5.274 23.2 23.2 0 0 1-.293 5.615q-.44 2.783-1.563 4.883-1.123 2.148-2.93 3.369-1.806 1.221-4.296.879-2.344-.292-3.809-1.807-1.416-1.513-2.197-3.711-.781-2.148-1.026-4.833a48 48 0 0 1-.195-5.274q.05-2.587.244-4.98.147-2.344.195-3.956 0-.927.196-3.515.195-2.588.439-6.104.293-3.515.635-7.568.39-4.053.732-7.861.391-3.81.733-7.032.39-3.222.732-5.078m3.565 55.371q1.318-.048 2.197-1.22.879-1.124 1.27-2.783.438-1.66.341-3.663a13.3 13.3 0 0 0-.683-3.662 8.7 8.7 0 0 0-1.709-2.978q-1.074-1.221-2.735-1.416a203 203 0 0 1-.293 2.344q-.146 1.514-.293 3.271-.098 1.758-.146 3.564 0 1.807.146 3.272.196 1.464.635 2.392.44.928 1.27.879m14.111-55.37q.683-1.221 1.709-1.563 1.074-.342 2.002-.049a2.97 2.97 0 0 1 1.514 1.074q.585.781.293 1.807l-3.028 32.422a16 16 0 0 0 4.102-.83 24.5 24.5 0 0 0 3.857-1.807 30 30 0 0 0 3.516-2.49 45 45 0 0 0 3.174-2.783q.781-.39 1.367.292.635.684.879 1.758.293 1.026.097 2.149-.145 1.123-.927 1.611-1.026.78-2.295 1.758a74 74 0 0 1-2.588 1.807 43 43 0 0 1-2.49 1.513q-1.221.684-2.1.928 1.465 1.611 2.295 4.101a21.3 21.3 0 0 1 1.025 5.274 23 23 0 0 1-.293 5.615q-.439 2.783-1.562 4.883-1.123 2.148-2.93 3.369-1.806 1.221-4.297.879-2.344-.292-3.808-1.807-1.416-1.513-2.198-3.711-.78-2.148-1.025-4.833a47 47 0 0 1-.195-5.274q.048-2.587.244-4.98.147-2.344.195-3.956 0-.927.196-3.515.195-2.588.439-6.104.293-3.515.635-7.568.39-4.053.732-7.861.391-3.81.733-7.032.39-3.222.732-5.078m3.564 55.37q1.319-.048 2.198-1.22.879-1.124 1.269-2.783.44-1.66.342-3.663a13.3 13.3 0 0 0-.684-3.662 8.7 8.7 0 0 0-1.709-2.978q-1.074-1.221-2.734-1.416-.098.83-.293 2.344-.146 1.514-.293 3.271-.098 1.758-.146 3.564 0 1.807.146 3.272.195 1.464.635 2.392t1.269.879m28.321-37.939a19 19 0 0 1-.879 4.932 14.8 14.8 0 0 1-2.295 4.443 12 12 0 0 1-3.711 3.174q-2.148 1.172-4.932.976.05 1.514.342 2.93.294 1.416.928 2.441a3.9 3.9 0 0 0 1.807 1.416q1.122.39 2.832-.146 1.708-.489 3.271-1.611a15 15 0 0 0 2.783-2.588 15.6 15.6 0 0 0 2.1-3.076q.879-1.66 1.269-3.223.196-.83.928-1.026.732-.195 1.514.05a2.77 2.77 0 0 1 1.367.878q.586.586.391 1.367-1.075 2.833-2.149 5.03-1.024 2.198-2.295 3.906a14 14 0 0 1-2.881 2.832q-1.561 1.172-3.711 1.953-2.88 1.026-5.322.88-2.44-.1-4.248-1.27-1.807-1.172-2.881-3.32-1.025-2.15-1.172-5.225a54 54 0 0 1-.097-3.516q.048-2.1.293-4.346.244-2.295.781-4.638a22 22 0 0 1 1.465-4.346q.927-2.05 2.295-3.565a8.05 8.05 0 0 1 3.418-2.246q1.66-.585 3.271-.44 1.611.148 2.832 1.026 1.27.879 2.002 2.49.732 1.563.684 3.858m-6.153-1.27q-.683-.44-1.367-.048-.635.341-1.22 1.22-.587.83-1.026 2.002a19 19 0 0 0-.732 2.442 23 23 0 0 0-.44 2.343q-.146 1.124-.049 1.807 2.247-.44 3.565-1.855t1.807-3.028q.537-1.611.341-3.027-.145-1.416-.879-1.856m25.831 1.27a19 19 0 0 1-.879 4.932 14.8 14.8 0 0 1-2.295 4.443 12 12 0 0 1-3.711 3.174q-2.149 1.172-4.932.976.05 1.514.342 2.93t.928 2.441a3.9 3.9 0 0 0 1.806 1.416q1.124.39 2.832-.146 1.71-.489 3.272-1.611a15 15 0 0 0 2.783-2.588 15.7 15.7 0 0 0 2.1-3.076q.879-1.66 1.269-3.223.196-.83.928-1.026.732-.195 1.514.05a2.77 2.77 0 0 1 1.367.878q.586.586.39 1.367-1.074 2.833-2.148 5.03-1.026 2.198-2.295 3.906a14 14 0 0 1-2.881 2.832q-1.562 1.172-3.711 1.953-2.88 1.026-5.322.88-2.442-.1-4.248-1.27-1.807-1.172-2.881-3.32-1.026-2.15-1.172-5.225a54 54 0 0 1-.097-3.516q.048-2.1.292-4.346.245-2.295.782-4.638a22 22 0 0 1 1.465-4.346q.927-2.05 2.295-3.565a8.05 8.05 0 0 1 3.417-2.246q1.66-.585 3.272-.44 1.611.148 2.832 1.026 1.27.879 2.002 2.49.732 1.563.684 3.858m-6.153-1.27q-.684-.44-1.367-.048-.635.341-1.221 1.22-.585.83-1.025 2.002a19 19 0 0 0-.733 2.442 23 23 0 0 0-.439 2.343q-.147 1.124-.049 1.807 2.247-.44 3.565-1.855t1.806-3.028q.537-1.611.342-3.027-.147-1.416-.879-1.856"/></g><defs><clipPath id="a"><path fill="#fff" d="M0 0h545v153H0z"/></clipPath></defs></svg>